Group:- HKRG
Uploader:-Abhinav4u

Format : Matroska
Format version : Version 2
File size : 772 MiB
Duration : 1h 37mn
Overall bit rate mode : Variable
Overall bit rate : 1 105 Kbps
Movie name : Rocky 5 (1990) 720p Dual Audio (Hindi-Eng)~Abhinav4u~{HKRG}

Video Info:-
Format/Info : Advanced Video Codec
Format profile : High@L4.0
Width : 1 280 pixels
Height : 720 pixels
Display aspect ratio : 16:9
Frame rate mode : Constant
Frame rate : 23.976 fps
Stream size : 578 MiB (75%)
Title : Ripper::Abhinav4u~

Audio #1:-
Format/Info : Audio Coding 3
Mode extension : CM (complete main)
Bit rate : 128 Kbps
Channel(s) : 2 channels
Sampling rate : 48.0 KHz
Stream size : 89.4 MiB (12%)
Title : ~Abhinav4u~

Audio #2:-
Format/Info : Audio Coding 3
Mode extension : CM (complete main)
Bit rate : 128 Kbps
Channel(s) : 6 channels
Channel positions : Front: L C R, Side: L R, LFE
Sampling rate : 48.0 KHz
Stream size : 89.4 MiB (12%)
Title : ~Abhinav4u~
Language : English

Sample Included in The Rip..
hindi Audio Credit:- Kunal Patelc(V.K)[Thanks]
Enjoy the Movie.. 